# xmcd
#
# Track frame offsets: 
#        150
#        51273
#        69590
#        90950
#
# Disc length: 1517 seconds
#
# Revision: 0
# Processed by: cddbd v1.5.2PL0 Copyright (c) Steve Scherf et al.
# Submitted via: ExactAudioCopy v0.95b4
#
DISCID=2b05eb04
DTITLE=Justice - D.A.N.C.E. Remixes
DYEAR=2007
DGENRE=Electronic
TTITLE0=Jackson Remix
TTITLE1=Live Version
TTITLE2=MSTRKRFT Remix
TTITLE3=Alan Braxe and Falke Remix
EXTD=
EXTT0=
EXTT1=
EXTT2=
EXTT3=
PLAYORDER=
